<svg width="16" height="27" viewBox="0 0 16 27" fill="none" xmlns="http://www.w3.org/2000/svg">
<path d="M14.6034 0.755218L11.1994 0.749756C7.37509 0.749756 4.90365 3.28539 4.90365 7.20997V10.1886H1.48105C1.1853 10.1886 0.945801 10.4283 0.945801 10.7241V15.0397C0.945801 15.3355 1.18557 15.575 1.48105 15.575H4.90365V26.4647C4.90365 26.7605 5.14315 27 5.4389 27H9.90442C10.2002 27 10.4397 26.7602 10.4397 26.4647V15.575H14.4415C14.7372 15.575 14.9767 15.3355 14.9767 15.0397L14.9784 10.7241C14.9784 10.5821 14.9218 10.4461 14.8216 10.3456C14.7214 10.2451 14.5849 10.1886 14.4429 10.1886H10.4397V7.66357C10.4397 6.44996 10.7289 5.83387 12.3098 5.83387L14.6029 5.83305C14.8984 5.83305 15.1379 5.59328 15.1379 5.29779V1.29047C15.1379 0.995264 14.8986 0.755764 14.6034 0.755218Z" fill="white"/>
</svg>
