<svg width="27" height="27" viewBox="0 0 27 27" fill="none" xmlns="http://www.w3.org/2000/svg">
<g clip-path="url(#clip0_5150_7459)">
<path d="M18.4645 0.749756H8.62067C4.09087 0.749756 0.41748 4.42315 0.41748 8.95295V18.7968C0.41748 23.3266 4.09087 27 8.62067 27H18.4645C22.9943 27 26.6677 23.3266 26.6677 18.7968V8.95295C26.6677 4.42315 22.9943 0.749756 18.4645 0.749756ZM24.2067 18.7968C24.2067 21.9632 21.6309 24.539 18.4645 24.539H8.62067C5.45424 24.539 2.87844 21.9632 2.87844 18.7968V8.95295C2.87844 5.78652 5.45424 3.21071 8.62067 3.21071H18.4645C21.6309 3.21071 24.2067 5.78652 24.2067 8.95295V18.7968Z" fill="white"/>
<path d="M13.5425 7.31226C9.91836 7.31226 6.97998 10.2506 6.97998 13.8748C6.97998 17.499 9.91836 20.4374 13.5425 20.4374C17.1667 20.4374 20.1051 17.499 20.1051 13.8748C20.1051 10.2506 17.1667 7.31226 13.5425 7.31226ZM13.5425 17.9764C11.2817 17.9764 9.44094 16.1356 9.44094 13.8748C9.44094 11.6124 11.2817 9.77321 13.5425 9.77321C15.8033 9.77321 17.6441 11.6124 17.6441 13.8748C17.6441 16.1356 15.8033 17.9764 13.5425 17.9764Z" fill="white"/>
<path d="M20.5976 7.69456C21.0806 7.69456 21.4721 7.30306 21.4721 6.82011C21.4721 6.33716 21.0806 5.94565 20.5976 5.94565C20.1147 5.94565 19.7231 6.33716 19.7231 6.82011C19.7231 7.30306 20.1147 7.69456 20.5976 7.69456Z" fill="white"/>
</g>
<defs>
<clipPath id="clip0_5150_7459">
<rect width="26.2502" height="26.2502" fill="white" transform="translate(0.41748 0.749756)"/>
</clipPath>
</defs>
</svg>
