<svg width="28" height="28" viewBox="0 0 28 28" fill="none" xmlns="http://www.w3.org/2000/svg">
<path d="M6.81974 8.84711H1.29902C1.054 8.84711 0.855469 9.04573 0.855469 9.29066V27.0264C0.855469 27.2714 1.054 27.4699 1.29902 27.4699H6.81974C7.06475 27.4699 7.26329 27.2714 7.26329 27.0264V9.29066C7.26329 9.04573 7.06475 8.84711 6.81974 8.84711Z" fill="white"/>
<path d="M4.06144 0.0315857C2.05268 0.0315857 0.418457 1.66403 0.418457 3.67058C0.418457 5.678 2.05268 7.31107 4.06144 7.31107C6.0686 7.31107 7.70149 5.67792 7.70149 3.67058C7.70158 1.66403 6.0686 0.0315857 4.06144 0.0315857Z" fill="white"/>
<path d="M20.8622 8.40598C18.6448 8.40598 17.0057 9.35917 16.0116 10.4422V9.29033C16.0116 9.0454 15.813 8.84678 15.568 8.84678H10.281C10.0359 8.84678 9.8374 9.0454 9.8374 9.29033V27.026C9.8374 27.271 10.0359 27.4696 10.281 27.4696H15.7896C16.0346 27.4696 16.2332 27.271 16.2332 27.026V18.251C16.2332 15.294 17.0363 14.142 19.0976 14.142C21.3425 14.142 21.5209 15.9888 21.5209 18.4031V27.0261C21.5209 27.2711 21.7194 27.4697 21.9645 27.4697H27.4752C27.7202 27.4697 27.9187 27.2711 27.9187 27.0261V17.2978C27.9187 12.9008 27.0803 8.40598 20.8622 8.40598Z" fill="white"/>
</svg>
