<svg width="29" height="22" viewBox="0 0 29 22" fill="none" xmlns="http://www.w3.org/2000/svg">
<path d="M28.4182 2.73533C27.3955 3.16354 26.3058 3.44737 25.1697 3.58518C26.3385 2.91908 27.2305 1.87235 27.6499 0.610704C26.5602 1.23087 25.3571 1.66892 24.0749 1.91337C23.0402 0.861722 21.5655 0.210388 19.9567 0.210388C16.8354 0.210388 14.3226 2.62869 14.3226 5.59332C14.3226 6.01989 14.3604 6.43005 14.4532 6.82052C9.76616 6.60231 5.61879 4.458 2.83267 1.19149C2.34626 1.99704 2.06095 2.91908 2.06095 3.91167C2.06095 5.77543 3.06642 7.42756 4.56519 8.38405C3.6594 8.36764 2.7708 8.11662 2.01798 7.72123C2.01798 7.73764 2.01798 7.75896 2.01798 7.78029C2.01798 10.3955 3.97221 12.5677 6.53489 13.0681C6.07598 13.1878 5.57582 13.2453 5.05675 13.2453C4.69581 13.2453 4.33143 13.2256 3.9894 13.1534C4.71987 15.2846 6.7927 16.8514 9.25741 16.9022C7.33927 18.3345 4.90378 19.1975 2.2672 19.1975C1.80485 19.1975 1.36141 19.1778 0.917969 19.1237C3.41533 20.6609 6.37504 21.5387 9.56679 21.5387C19.9412 21.5387 25.6132 13.3355 25.6132 6.22497C25.6132 5.98707 25.6046 5.75739 25.5925 5.52934C26.7115 4.77136 27.6516 3.82471 28.4182 2.73533Z" fill="white"/>
</svg>
