<svg width="48" height="13" viewBox="0 0 48 13" fill="none" xmlns="http://www.w3.org/2000/svg">
<path fill-rule="evenodd" clip-rule="evenodd" d="M10.2788 12.6995V11.6637C10.2788 10.3625 10.2786 9.06124 10.2788 7.75976V7.60052C10.2788 7.09329 10.1648 6.43237 9.99987 5.99023C9.79144 5.43144 9.60736 5.05247 9.25081 4.56943C9.20416 4.50651 9.1525 4.45303 9.11019 4.39422C9.03464 4.2892 8.77844 4.02976 8.65465 3.91821C8.5973 3.86666 8.54269 3.81874 8.48604 3.77252C8.37522 3.68177 8.25531 3.59779 8.13289 3.51261C7.91332 3.35967 7.5868 3.18905 7.34014 3.08452C7.05253 2.96254 6.74944 2.86865 6.40472 2.80815C6.27274 2.78516 6.05066 2.75636 5.82449 2.74161H5.32936C5.30752 2.74378 5.28636 2.74669 5.26633 2.74983C5.09977 2.77621 4.97804 2.77064 4.73115 2.81614C4.39052 2.87883 4.11794 2.97005 3.80529 3.10267C3.45943 3.24932 3.14952 3.4434 2.84713 3.66532C2.78183 3.71324 2.73153 3.75219 2.67214 3.80422C2.36701 4.07018 2.29534 4.15755 2.05484 4.43294C1.95562 4.5462 1.87736 4.66285 1.79044 4.78748C1.68235 4.9426 1.59293 5.10523 1.50465 5.27439C1.48349 5.31481 1.47234 5.32908 1.4514 5.37336C1.41613 5.44839 1.3811 5.51444 1.35038 5.59068C1.28872 5.74435 1.23025 5.87793 1.17655 6.04128C1.02205 6.51077 0.93513 7.00735 0.916016 7.50854V7.92938C0.946284 8.72581 1.14834 9.5174 1.52627 10.2144C1.65643 10.4547 1.72742 10.5699 1.87964 10.7848L2.15429 11.1282C2.20867 11.1853 2.25304 11.233 2.3072 11.2905C2.94704 11.9711 3.77916 12.4209 4.66429 12.6111C4.89979 12.662 5.21811 12.6995 5.47137 12.6995H5.50255H5.71326C5.91531 12.6983 6.07618 12.6896 6.33467 12.6431C6.76632 12.5654 6.89441 12.5115 7.27258 12.3694C7.41479 12.3159 7.55428 12.2414 7.68466 12.1722C8.01231 11.9981 8.30265 11.7881 8.58663 11.5495C8.72178 11.4357 8.94068 11.216 9.05377 11.0858L9.33593 10.7361V12.6995H10.2788L10.2788 12.6995ZM5.5972 4.28C5.96195 4.28 6.25751 4.59461 6.25751 4.98205C6.25751 5.36998 5.96193 5.68482 5.5972 5.68482C5.23291 5.68482 4.93733 5.36998 4.93733 4.98205C4.93733 4.59461 5.23291 4.28 5.5972 4.28ZM5.5972 7.01874C5.96195 7.01874 6.25751 7.33285 6.25751 7.72078C6.25751 8.10872 5.96193 8.42307 5.5972 8.42307C5.23291 8.42307 4.93733 8.1087 4.93733 7.72078C4.93733 7.33285 5.23291 7.01874 5.5972 7.01874ZM5.5972 9.757C5.96195 9.757 6.25751 10.0718 6.25751 10.4595C6.25751 10.847 5.96193 11.1613 5.5972 11.1613C5.23291 11.1613 4.93733 10.847 4.93733 10.4595C4.93733 10.0718 5.23291 9.757 5.5972 9.757Z" fill="white"/>
<path d="M15.9039 4.24062C16.4573 4.24062 16.9786 4.35097 17.468 4.57144C17.9575 4.79239 18.3805 5.09223 18.737 5.4712C19.0934 5.85042 19.3755 6.30054 19.5832 6.82085C19.7905 7.3414 19.8941 7.89606 19.8941 8.48462C19.8941 9.08454 19.7905 9.64164 19.5832 10.1566C19.3755 10.6716 19.0934 11.1188 18.737 11.4978C18.3805 11.877 17.9575 12.1769 17.468 12.3976C16.9786 12.618 16.4573 12.7286 15.9039 12.7286C15.3399 12.7286 14.8158 12.618 14.3316 12.3976C13.8477 12.1768 13.4272 11.877 13.0708 11.4978C12.7143 11.1188 12.4324 10.6716 12.2248 10.1566C12.0173 9.64162 11.9136 9.08454 11.9136 8.48462V2.71262H12.7116V5.93826C13.0736 5.42885 13.5364 5.01865 14.1002 4.70744C14.6643 4.39623 15.2655 4.24062 15.9039 4.24062ZM15.9039 11.8797C16.3404 11.8797 16.7524 11.7892 17.1411 11.6081C17.5293 11.4271 17.8672 11.1837 18.1543 10.8783C18.4417 10.5726 18.6704 10.2132 18.8408 9.80015C19.011 9.3873 19.0961 8.94855 19.0961 8.48463C19.0961 8.02047 19.011 7.58197 18.8408 7.16886C18.6704 6.75601 18.4417 6.39663 18.1543 6.09098C17.8672 5.78557 17.5293 5.54212 17.1411 5.36111C16.7524 5.18009 16.3404 5.08958 15.9039 5.08958C15.4677 5.08958 15.0552 5.18009 14.667 5.36111C14.2784 5.54213 13.9407 5.78559 13.6534 6.09098C13.366 6.39663 13.1373 6.75601 12.9671 7.16886C12.7967 7.58197 12.7116 8.02047 12.7116 8.48463C12.7116 8.94855 12.7967 9.3873 12.9671 9.80015C13.1373 10.2133 13.366 10.5726 13.6534 10.8783C13.9407 11.1837 14.2784 11.4271 14.667 11.6081C15.0552 11.7892 15.4677 11.8797 15.9039 11.8797ZM24.8421 11.8797C25.5232 11.8797 26.1246 11.6875 26.6461 11.3025C27.1674 10.9177 27.5503 10.4027 27.7952 9.7578H28.673C28.5347 10.1878 28.3406 10.584 28.0903 10.946C27.8404 11.3083 27.5476 11.6193 27.2127 11.8797C26.8775 12.1401 26.5077 12.3465 26.1034 12.4992C25.6988 12.6519 25.2788 12.7286 24.8421 12.7286C24.2783 12.7286 23.7543 12.618 23.2701 12.3975C22.7859 12.1768 22.3656 11.877 22.0093 11.4978C21.6527 11.1188 21.3706 10.6716 21.1633 10.1566C20.9558 9.6416 20.852 9.08453 20.852 8.4846C20.852 7.89605 20.9558 7.34139 21.1633 6.82084C21.3706 6.30053 21.6527 5.8504 22.0093 5.47119C22.3656 5.09221 22.7859 4.79238 23.2701 4.57143C23.7543 4.35097 24.2783 4.2406 24.8421 4.2406C25.3957 4.2406 25.917 4.35095 26.4065 4.57143C26.8959 4.79238 27.3189 5.09221 27.6755 5.47119C28.0318 5.8504 28.3139 6.30053 28.5215 6.82084C28.729 7.34139 28.8325 7.89605 28.8325 8.4846V8.90908H27.396H21.65C21.7137 9.33912 21.8391 9.73504 22.025 10.0973C22.2113 10.4593 22.448 10.7706 22.7354 11.0309C23.0225 11.2913 23.3447 11.4978 23.701 11.6505C24.0576 11.8032 24.438 11.8796 24.8421 11.8796L24.8421 11.8797ZM24.8421 5.08958C24.438 5.08958 24.0576 5.16581 23.701 5.31851C23.3447 5.47122 23.0225 5.67789 22.7354 5.93828C22.448 6.19842 22.2113 6.51255 22.025 6.8804C21.8391 7.24824 21.7137 7.64149 21.65 8.06016H28.0345C27.9706 7.64149 27.8457 7.24824 27.6593 6.8804C27.4734 6.51255 27.2363 6.19844 26.9492 5.93828C26.6618 5.67788 26.3373 5.47122 25.9755 5.31851C25.6138 5.16581 25.236 5.08958 24.8422 5.08958H24.8421ZM30.5884 12.7286H29.7902V2.71263H30.5884V12.7286ZM32.3441 12.7286H31.5461V2.71263H32.3441V12.7286ZM37.2922 4.24064C37.8458 4.24064 38.3671 4.35098 38.8565 4.57146C39.346 4.79241 39.769 5.09224 40.1255 5.47122C40.4818 5.85043 40.7638 6.30056 40.9715 6.82087C41.179 7.34142 41.2826 7.89608 41.2826 8.48463V12.7286H40.4846V11.031C40.1228 11.5404 39.6597 11.9504 39.0961 12.2618C38.5321 12.573 37.9309 12.7286 37.2922 12.7286C36.7283 12.7286 36.2043 12.618 35.7201 12.3976C35.2359 12.1769 34.8157 11.877 34.4593 11.4978C34.1026 11.1188 33.8206 10.6716 33.6133 10.1566C33.4058 9.64164 33.3021 9.08456 33.3021 8.48463C33.3021 7.89608 33.4058 7.34142 33.6133 6.82087C33.8206 6.30056 34.1026 5.85043 34.4593 5.47122C34.8157 5.09224 35.2359 4.79241 35.7201 4.57146C36.2043 4.351 36.7284 4.24064 37.2922 4.24064ZM37.2922 11.8797C37.7286 11.8797 38.1409 11.7892 38.5293 11.6082C38.9177 11.4271 39.2554 11.1837 39.5428 10.8783C39.8302 10.5726 40.0589 10.2133 40.229 9.80017C40.3992 9.38732 40.4846 8.94856 40.4846 8.48465C40.4846 8.02048 40.3992 7.58198 40.229 7.16888C40.0588 6.75602 39.8302 6.39665 39.5428 6.091C39.2554 5.78559 38.9177 5.54213 38.5293 5.36113C38.1409 5.1801 37.7286 5.08959 37.2922 5.08959C36.856 5.08959 36.4437 5.1801 36.0553 5.36113C35.6669 5.54215 35.329 5.7856 35.0418 6.091C34.7545 6.39665 34.5258 6.75602 34.3553 7.16888C34.1851 7.58198 34.1 8.02048 34.1 8.48465C34.1 8.94856 34.1851 9.38732 34.3553 9.80017C34.5258 10.2133 34.7545 10.5726 35.0418 10.8783C35.329 11.1837 35.6669 11.4272 36.0553 11.6082C36.4437 11.7892 36.856 11.8797 37.2922 11.8797Z" fill="white"/>
<path d="M43.1089 0.719989V1.20037H42.1226V3.89677H41.5969V1.20037H40.5967V0.719989H43.1089ZM44.3718 3.9604C44.1445 3.9604 43.937 3.92774 43.7495 3.8624C43.562 3.79706 43.3961 3.70558 43.2516 3.58797L43.496 3.19569C43.6311 3.29709 43.7727 3.37137 43.9201 3.41881C44.0676 3.46625 44.2089 3.48996 44.3442 3.48996C44.547 3.48996 44.7022 3.45318 44.8098 3.37962C44.9172 3.30605 44.9711 3.19569 44.9711 3.04856C44.9711 2.96048 44.9527 2.88689 44.9158 2.8281C44.879 2.76929 44.8159 2.71532 44.7267 2.6662C44.6375 2.61731 44.5085 2.55996 44.3395 2.49463L44.2519 2.46026C44.0553 2.38185 43.8978 2.30682 43.7795 2.23496C43.6612 2.16284 43.5652 2.06894 43.4914 1.95302C43.4177 1.83686 43.3809 1.69068 43.3809 1.51426C43.3809 1.32454 43.4307 1.16529 43.5306 1.03607C43.6305 0.907079 43.7604 0.811501 43.9201 0.749292C44.0799 0.687336 44.2505 0.656128 44.4316 0.656128C44.8066 0.656128 45.1493 0.767445 45.4597 0.989602L45.2185 1.38189C45.0794 1.29017 44.9488 1.22337 44.8266 1.18079C44.7044 1.13819 44.5693 1.11715 44.4209 1.11715C44.2635 1.11715 44.1383 1.14885 44.0453 1.21274C43.9524 1.27638 43.9062 1.37029 43.9062 1.49468C43.9062 1.56316 43.9231 1.62294 43.957 1.67353C43.9916 1.72411 44.0498 1.77396 44.1335 1.82309C44.2166 1.87197 44.3356 1.92594 44.4901 1.98475L44.5832 2.01912C44.7843 2.09438 44.9465 2.16698 45.0701 2.2374C45.1939 2.30758 45.2983 2.40559 45.3852 2.53144C45.4719 2.65729 45.5149 2.8199 45.5149 3.01932C45.5149 3.22188 45.4664 3.39442 45.3697 3.53648C45.273 3.67879 45.1392 3.78478 44.9688 3.8552C44.7982 3.92539 44.5993 3.96047 44.3718 3.96047L44.3718 3.9604ZM46.5796 3.4113H47.9994V3.89677H46.0542V0.720005H46.5796V3.41132V3.4113Z" fill="white"/>
</svg>
