<svg width="83" height="47" viewBox="0 0 83 47" fill="none" xmlns="http://www.w3.org/2000/svg">
<path d="M10.6085 26.7325C10.8141 25.3128 11.4104 24.2656 12.4016 23.5879C13.3928 22.9102 14.5289 22.5692 15.8146 22.5692C16.6245 22.5692 17.3698 22.6933 18.055 22.9465C18.7401 23.1991 19.2154 23.5201 19.4855 23.9131C19.1709 24.2263 18.9172 24.8519 18.728 25.7944H18.3495C18.285 25.5097 18.128 25.2087 17.87 24.884C17.6163 24.5552 17.2737 24.2826 16.8466 24.0579C16.4158 23.8374 15.9119 23.7248 15.3272 23.7248C14.88 23.7248 14.4449 23.8611 14.0177 24.13C13.5949 24.3989 13.2523 24.7556 12.9864 25.2008C12.7241 25.6417 12.5915 26.1075 12.5915 26.5926C12.5915 27.7434 13.3168 28.6664 14.7631 29.3642L17.4064 30.4913C18.3373 30.8844 19.0261 31.4216 19.4776 32.1036C19.9328 32.7856 20.1585 33.5433 20.1585 34.3815C20.1585 35.284 19.9084 36.1586 19.4052 37.0083C18.9014 37.8587 18.1883 38.5528 17.2737 39.09C16.3549 39.6273 15.3315 39.8962 14.1991 39.8962C13.4738 39.8962 12.7326 39.7435 11.9708 39.4431C11.2133 39.1385 10.6334 38.7854 10.23 38.3844C10.4034 37.9629 10.5117 37.5983 10.5482 37.2936C10.5884 36.989 10.6085 36.6001 10.6085 36.1307H10.9869C11.523 36.889 12.0104 37.4462 12.4497 37.7993C12.889 38.1525 13.276 38.3693 13.6101 38.4492C13.9447 38.5334 14.3275 38.5734 14.7625 38.5734C15.4233 38.5734 15.9996 38.425 16.4912 38.1282C16.9829 37.8314 17.3534 37.4341 17.6035 36.9447C17.8572 36.4554 17.9826 35.9339 17.9826 35.3767C17.9826 34.7026 17.8055 34.0933 17.4508 33.5439C17.096 32.9982 16.5807 32.6051 15.8955 32.3725L13.4415 31.2411C12.5513 30.836 11.9021 30.395 11.495 29.9214C11.0843 29.4484 10.8342 28.9826 10.7454 28.5217C10.6529 28.0644 10.6085 27.4666 10.6085 26.7331V26.7325ZM23.0591 39.511V21.27C23.4382 21.3663 23.8088 21.4141 24.1714 21.4141C24.5341 21.4141 24.8566 21.3663 25.1383 21.27V29.9371C25.3117 29.7167 25.5052 29.4641 25.7224 29.1752C25.9402 28.8863 26.2019 28.6337 26.5122 28.409C26.8225 28.1843 27.2174 28.0038 27.6927 27.8718C28.1679 27.7392 28.7642 27.6713 29.4816 27.6713C30.1588 27.6713 30.7709 27.8639 31.3234 28.2449C31.8717 28.6301 32.3025 29.1473 32.6085 29.8051C32.9146 30.4586 33.0679 31.1891 33.0679 31.9952V39.5116C32.6895 39.4195 32.3426 39.3711 32.0287 39.3711C31.7147 39.3711 31.3679 39.4189 30.9894 39.5116V32.1878C30.9894 31.1854 30.7192 30.4108 30.1795 29.8657C29.6434 29.3163 28.9948 29.0432 28.2415 29.0432C27.7219 29.0432 27.2223 29.1916 26.7428 29.4841C26.2633 29.7766 25.8764 30.2218 25.5825 30.8154C25.2886 31.4089 25.1395 32.1188 25.1395 32.937V39.511C24.8578 39.4189 24.5353 39.3705 24.1726 39.3705C23.81 39.3705 23.4394 39.4183 23.0603 39.511H23.0591ZM35.5262 34.2447C35.5262 32.9213 35.7678 31.7863 36.2478 30.8438C36.7273 29.905 37.3802 29.1994 38.2059 28.7343C39.0322 28.2649 39.9626 28.0323 41.0025 28.0323C42.1994 28.0323 43.1705 28.3055 43.9238 28.8506C44.6734 29.3963 45.2089 30.0577 45.5235 30.8281C45.8374 31.5979 45.995 32.3483 45.995 33.0781C45.995 33.4149 45.9671 33.6838 45.9147 33.8801H37.7995C37.7995 34.8746 37.9285 35.7128 38.1822 36.4027C38.4402 37.0889 38.8753 37.6261 39.4995 38.0029C40.1202 38.3838 40.938 38.5722 41.9535 38.5722C42.6222 38.5722 43.2587 38.4395 43.8715 38.1712C44.4799 37.9065 44.9716 37.5377 45.3501 37.0683L45.535 38.3838C44.9229 38.7848 44.4714 39.0694 44.1854 39.2342C43.8994 39.3989 43.5045 39.5509 43.0007 39.6872C42.4969 39.8277 41.8927 39.8956 41.1917 39.8956C39.9504 39.8392 38.9112 39.5467 38.0769 39.0174C37.2427 38.488 36.6263 37.8102 36.2235 36.9756C35.8207 36.1453 35.5907 35.2349 35.5262 34.2441V34.2447ZM44.0364 32.9413C44.0364 31.8062 43.8106 30.8596 43.3634 30.1055C42.9119 29.3472 42.1306 28.9705 41.0104 28.9705C40.3575 28.9705 39.7892 29.1752 39.3061 29.5804C38.8223 29.9856 38.4481 30.5028 38.1901 31.1285C37.9279 31.7542 37.7995 32.3598 37.7995 32.9413H44.037H44.0364ZM49.1378 39.511V21.0774C49.5163 21.1737 49.8631 21.2215 50.1771 21.2215C50.4911 21.2215 50.8379 21.1737 51.2164 21.0774V39.511C50.9347 39.4189 50.6122 39.3705 50.2495 39.3705C49.8869 39.3705 49.5163 39.4183 49.1378 39.511ZM55.0005 36.6916V28.9705H53.4897C53.5821 28.8784 53.6308 28.7422 53.6308 28.5732C53.6308 28.4006 53.5821 28.2201 53.4897 28.0317H55.0005V25.7816L56.8862 25.0354V28.0317H59.5136C59.4168 28.2201 59.3724 28.3769 59.3724 28.5011C59.3724 28.6253 59.4168 28.7815 59.5136 28.9705H56.8862V35.1871C56.8862 35.877 56.9142 36.4747 56.975 36.9756C57.0316 37.4808 57.1886 37.9265 57.4381 38.319C57.6881 38.7121 58.0745 38.9083 58.5984 38.9083C58.9489 38.9083 59.3803 38.7999 59.8878 38.5794V39.3293C59.0493 39.6739 58.3003 39.8465 57.6431 39.8465C56.7888 39.8465 56.1359 39.5697 55.6808 39.0125C55.2256 38.4547 54.9999 37.6806 54.9999 36.6904L55.0005 36.6916ZM61.2258 36.8721C61.2258 36.3463 61.3226 35.8812 61.5197 35.4724C61.7169 35.0635 62.0394 34.7062 62.4866 34.4015C62.9338 34.0969 63.5222 33.8522 64.2554 33.6717L67.2692 33.1102C67.6161 33.0382 67.8734 32.8813 68.0432 32.6451C68.2124 32.4046 68.2969 32.1157 68.2969 31.779C68.2969 31.358 68.1758 30.9286 67.9343 30.4956C67.6964 30.0583 67.3581 29.6973 66.9151 29.4048C66.4758 29.1158 65.964 28.9717 65.3836 28.9717C64.8438 28.9717 64.3601 29.1043 63.9329 29.3727C63.51 29.6373 63.0507 30.0661 62.5547 30.6639H62.1763V29.3484C62.6393 29.0716 63.0506 28.8512 63.409 28.6786C63.7674 28.5059 64.1788 28.3539 64.654 28.2255C65.1256 28.0971 65.6209 28.0329 66.1411 28.0329C67.5716 28.0329 68.6188 28.3418 69.2881 28.9632C69.9569 29.581 70.2915 30.5876 70.2915 31.9837V37.9998C70.2915 38.445 70.5094 38.6697 70.9402 38.6697C71.0892 38.6697 71.315 38.634 71.6131 38.5655V39.1312C71.2261 39.448 70.7667 39.6085 70.2307 39.6085C69.7512 39.6085 69.3119 39.4801 68.9133 39.2196C68.5184 38.9592 68.2848 38.614 68.2124 38.1888C67.024 39.3117 65.7906 39.8738 64.5055 39.8738C63.5867 39.8738 62.8091 39.5812 62.1763 38.9992C61.5435 38.4135 61.2252 37.7036 61.2252 36.8733L61.2258 36.8721ZM68.213 37.0568V33.8601C67.0039 33.9806 66.0413 34.149 65.3282 34.3652C64.615 34.5857 64.0911 34.8788 63.7565 35.2434C63.4224 35.6044 63.2569 36.0617 63.2569 36.611C63.2569 36.7836 63.277 36.9962 63.3172 37.2446C63.3774 37.5977 63.6232 37.9223 64.0504 38.2233C64.4775 38.5201 64.9649 38.6685 65.5052 38.6685C66.5165 38.6685 67.4189 38.1313 68.213 37.0562V37.0568Z" fill="#0033EA"/>
<path fill-rule="evenodd" clip-rule="evenodd" d="M39.9435 0C59.5443 0 75.846 13.2757 79.2377 30.7856C79.0923 30.7747 78.945 30.7693 78.7971 30.7693C78.2374 30.7693 77.697 30.8498 77.1853 30.9988C70.7251 14.6106 56.4807 3.22338 39.9435 3.22338C20.5525 3.22338 4.31106 18.8781 0.079102 39.8961C0.0285984 39.1227 0 38.3444 0 37.5588C0 16.8158 17.8837 0.00060567 39.9435 0.00060567V0Z" fill="#0033EA"/>
<path d="M78.7965 39.8956C80.7026 39.8956 82.2478 38.3576 82.2478 36.4603C82.2478 34.563 80.7026 33.0249 78.7965 33.0249C76.8904 33.0249 75.3452 34.563 75.3452 36.4603C75.3452 38.3576 76.8904 39.8956 78.7965 39.8956Z" fill="#FFB100"/>
<path d="M34.2778 45.5585C34.2821 45.4834 34.2979 45.421 34.3241 45.3713C34.3502 45.3223 34.3843 45.2853 34.4257 45.2623C34.4671 45.2387 34.5097 45.2272 34.5529 45.2272C34.6028 45.2272 34.6508 45.2393 34.6977 45.2647C34.7439 45.2896 34.7823 45.3241 34.8115 45.3683C34.8407 45.4125 34.8553 45.464 34.8553 45.5227C34.8461 45.616 34.8145 45.6875 34.7597 45.7378C34.7044 45.7874 34.6405 45.8123 34.5662 45.8123C34.4938 45.8123 34.4299 45.7898 34.3746 45.7444C34.3192 45.6996 34.287 45.6372 34.2778 45.5585ZM35.5429 45.5585C35.5471 45.4834 35.5629 45.421 35.5891 45.3713C35.6153 45.3223 35.6493 45.2853 35.6907 45.2623C35.7321 45.2387 35.7747 45.2272 35.8179 45.2272C35.8678 45.2272 35.9159 45.2393 35.9627 45.2647C36.0089 45.2896 36.0473 45.3241 36.0765 45.3683C36.1057 45.4125 36.1203 45.464 36.1203 45.5227C36.1112 45.616 36.0795 45.6875 36.0248 45.7378C35.9694 45.7874 35.9055 45.8123 35.8313 45.8123C35.7589 45.8123 35.695 45.7898 35.6396 45.7444C35.5842 45.6996 35.552 45.6372 35.5429 45.5585ZM36.8079 45.5585C36.8121 45.4834 36.828 45.421 36.8541 45.3713C36.8803 45.3223 36.9144 45.2853 36.9557 45.2623C36.9971 45.2387 37.0397 45.2272 37.0829 45.2272C37.1328 45.2272 37.1809 45.2393 37.2277 45.2647C37.274 45.2896 37.3123 45.3241 37.3415 45.3683C37.3707 45.4125 37.3853 45.464 37.3853 45.5227C37.3762 45.616 37.3446 45.6875 37.2898 45.7378C37.2344 45.7874 37.1705 45.8123 37.0963 45.8123C37.0239 45.8123 36.96 45.7898 36.9046 45.7444C36.8493 45.6996 36.817 45.6372 36.8079 45.5585ZM37.9664 44.1897C37.9901 44.0419 38.0443 43.922 38.1277 43.8305C38.2116 43.7397 38.3108 43.6748 38.4276 43.6373C38.5433 43.5991 38.6668 43.5798 38.7976 43.5798C38.9272 43.5798 39.0209 43.5822 39.0799 43.5864C39.1383 43.5913 39.1803 43.5955 39.2041 43.601C39.2278 43.6064 39.2606 43.6119 39.3002 43.6173C39.3398 43.6228 39.4042 43.6252 39.4931 43.6252C39.6032 43.6252 39.7444 43.6222 39.9178 43.6161V43.7942L39.3769 43.7584C39.4341 43.793 39.4882 43.8426 39.5387 43.9086C39.5904 43.9747 39.63 44.0473 39.658 44.1279C39.6866 44.2084 39.7012 44.289 39.7012 44.3696C39.6775 44.5912 39.6063 44.7511 39.4894 44.848C39.3714 44.9455 39.2205 45.0031 39.0349 45.0206C38.8499 45.0376 38.7033 45.0485 38.595 45.0527C38.4861 45.0576 38.4216 45.0812 38.4009 45.1248C38.379 45.1739 38.3692 45.2145 38.3692 45.246C38.3692 45.3102 38.4003 45.3604 38.4623 45.395C38.5256 45.4295 38.6035 45.4519 38.6972 45.4634C38.7921 45.4749 38.8998 45.4803 39.0215 45.4803C39.0623 45.4803 39.0994 45.4804 39.1316 45.4791C39.1639 45.4785 39.2028 45.4779 39.2479 45.4779C39.3032 45.4779 39.3464 45.4803 39.3763 45.4846C39.5637 45.5221 39.7024 45.5857 39.7919 45.6748C39.8813 45.7644 39.9348 45.9049 39.9531 46.0975C39.9543 46.1084 39.9555 46.1236 39.9555 46.1448C39.9555 46.2423 39.9294 46.341 39.8776 46.4415C39.8259 46.5427 39.748 46.6354 39.644 46.7214C39.5399 46.8068 39.4176 46.874 39.2746 46.9237C39.1329 46.9733 38.9734 46.9982 38.7976 46.9982C38.6199 46.9982 38.4623 46.9691 38.326 46.9115C38.1885 46.854 38.0826 46.7747 38.0078 46.6759C37.9323 46.5772 37.8946 46.4682 37.8946 46.3501C37.8946 46.1714 37.9323 46.0339 38.0066 45.9364C38.0814 45.8395 38.2001 45.7735 38.3644 45.7378C38.1715 45.6608 38.0753 45.5403 38.0753 45.3768C38.0753 45.3065 38.0875 45.2478 38.1106 45.2017C38.1337 45.1557 38.1684 45.1145 38.2141 45.0764C38.2603 45.0388 38.3218 44.9946 38.4009 44.9431C38.2171 44.8862 38.0997 44.8062 38.0461 44.7033C37.9938 44.5997 37.9676 44.4671 37.9676 44.3054V44.1885L37.9664 44.1897ZM38.3272 44.3689C38.3272 44.5264 38.3735 44.656 38.4654 44.7572C38.5572 44.8583 38.668 44.9092 38.7976 44.9092C38.8213 44.9116 38.8402 44.9128 38.8518 44.9128C38.9351 44.9128 39.0136 44.8898 39.0885 44.842C39.1633 44.7953 39.2235 44.7275 39.2704 44.6397C39.3172 44.5525 39.3404 44.4501 39.3404 44.3326C39.3404 44.1406 39.2935 43.991 39.1992 43.8832C39.1043 43.7748 38.9832 43.7215 38.8341 43.7215C38.643 43.7378 38.5104 43.8123 38.4374 43.9432C38.3644 44.0746 38.3279 44.2163 38.3279 44.3689H38.3272ZM38.183 46.2792C38.183 46.4113 38.2402 46.5342 38.3552 46.6481C38.4702 46.7626 38.6418 46.8195 38.8706 46.8195C38.9765 46.8195 39.0848 46.8019 39.1974 46.7656C39.3099 46.7298 39.4036 46.6735 39.4803 46.5978C39.5564 46.5221 39.5941 46.4276 39.5941 46.315C39.5941 46.2102 39.5807 46.1193 39.5545 46.0424C39.5278 45.9661 39.4669 45.9019 39.3708 45.8516C39.2753 45.8001 39.1323 45.7747 38.9424 45.7747C38.7976 45.7747 38.671 45.788 38.5633 45.8129C38.4556 45.8383 38.3674 45.8886 38.2999 45.9643C38.2323 46.0388 38.1928 46.1436 38.1824 46.2792H38.183ZM40.1679 44.7681C40.1679 44.5313 40.2172 44.3199 40.3151 44.1352C40.4131 43.9492 40.5531 43.8045 40.7362 43.7015C40.9181 43.5979 41.1268 43.5464 41.3623 43.5464C41.6368 43.5464 41.8558 43.6161 42.0183 43.7566C42.1813 43.8965 42.2933 44.0552 42.356 44.2333C42.4174 44.4113 42.4485 44.5652 42.4485 44.696C42.4485 44.8202 42.4278 44.9455 42.3852 45.0721C42.3426 45.1987 42.2757 45.3186 42.185 45.4325C42.0937 45.5464 41.9745 45.6372 41.8266 45.7075C41.6787 45.7771 41.5096 45.8117 41.3203 45.8117C41.3094 45.8117 41.2997 45.8117 41.2911 45.8104C41.282 45.8098 41.2698 45.8092 41.2552 45.8092C41.0331 45.8092 40.8409 45.7632 40.6754 45.6711C40.5111 45.5791 40.3857 45.4543 40.2993 45.2968C40.2123 45.1388 40.1691 44.9625 40.1691 44.7681H40.1679ZM40.6023 44.8056C40.6023 44.9789 40.651 45.163 40.7478 45.3562C40.8451 45.5494 41.0252 45.653 41.2887 45.6687C41.4938 45.6687 41.6611 45.5857 41.7913 45.4192C41.9209 45.2526 41.9945 45.0122 42.0122 44.6972C42.0122 44.507 41.9872 44.3381 41.9373 44.1903C41.8881 44.0431 41.8114 43.9286 41.7092 43.8475C41.6069 43.7669 41.4785 43.7263 41.3246 43.7263C41.1019 43.7263 40.9248 43.8251 40.7934 44.0237C40.6626 44.2224 40.5969 44.4519 40.5969 44.7112C40.5969 44.7317 40.5981 44.7632 40.6011 44.8056H40.6023ZM42.9176 45.2351V43.7584H42.6286C42.6462 43.7409 42.6553 43.7148 42.6553 43.6827C42.6553 43.65 42.6462 43.6149 42.6286 43.5792H42.9176V43.1485L43.2784 43.0062V43.5792H43.781C43.7628 43.6149 43.7543 43.6452 43.7543 43.6688C43.7543 43.6924 43.7628 43.7227 43.781 43.7584H43.2784V44.9474C43.2784 45.0794 43.2839 45.1939 43.2955 45.2896C43.3064 45.3859 43.3362 45.4713 43.3843 45.5464C43.4318 45.6215 43.506 45.659 43.6064 45.659C43.6733 45.659 43.7561 45.6384 43.8528 45.596V45.7396C43.6928 45.8056 43.5492 45.8383 43.4238 45.8383C43.2602 45.8383 43.1354 45.7856 43.0484 45.679C42.9614 45.5724 42.9182 45.424 42.9182 45.2351H42.9176ZM45.2225 43.5785C45.3126 43.5967 45.4008 43.6064 45.4848 43.6064C45.5687 43.6064 45.6381 43.5973 45.6929 43.5785C45.7087 43.6367 45.7507 43.7536 45.817 43.9274C45.8833 44.1006 45.9381 44.2412 45.9801 44.3477C46.0233 44.4543 46.0847 44.6009 46.1644 44.7881C46.2447 44.9746 46.3165 45.1357 46.3792 45.2708C46.4455 45.1375 46.5344 44.9425 46.6457 44.6869C46.7571 44.4307 46.852 44.2 46.9317 43.9934C47.0102 43.7869 47.0552 43.6488 47.0656 43.5785C47.1197 43.5967 47.1745 43.6064 47.228 43.6064C47.2822 43.6064 47.337 43.5973 47.3905 43.5785L45.8724 46.9618C45.8365 46.9436 45.7914 46.934 45.7367 46.934C45.6825 46.934 45.6192 46.943 45.5468 46.9618L46.1608 45.7384L45.2213 43.5785H45.2225ZM47.5718 44.7675C47.5718 44.5307 47.6211 44.3193 47.7191 44.1346C47.8171 43.9486 47.957 43.8039 48.1402 43.7009C48.3221 43.5973 48.5308 43.5458 48.7663 43.5458C49.0407 43.5458 49.2597 43.6155 49.4222 43.756C49.5853 43.8959 49.6972 44.0546 49.7599 44.2327C49.8214 44.4107 49.8524 44.5646 49.8524 44.6954C49.8524 44.8196 49.8317 44.9449 49.7891 45.0715C49.7465 45.1981 49.6796 45.318 49.5889 45.4319C49.4977 45.5458 49.3784 45.6366 49.2305 45.7069C49.0827 45.7765 48.9135 45.811 48.7243 45.811C48.7133 45.811 48.7036 45.811 48.6951 45.8098C48.686 45.8092 48.6738 45.8086 48.6592 45.8086C48.4371 45.8086 48.2448 45.7626 48.0793 45.6705C47.915 45.5785 47.7897 45.4537 47.7033 45.2962C47.6163 45.1381 47.5731 44.9619 47.5731 44.7675H47.5718ZM48.0063 44.805C48.0063 44.9783 48.055 45.1624 48.1517 45.3556C48.2491 45.5488 48.4292 45.6524 48.6926 45.6681C48.8977 45.6681 49.065 45.5851 49.1953 45.4186C49.3249 45.252 49.3985 45.0116 49.4161 44.6966C49.4161 44.5064 49.3912 44.3375 49.3413 44.1897C49.292 44.0425 49.2153 43.928 49.1131 43.8469C49.0109 43.7663 48.8825 43.7257 48.7286 43.7257C48.5058 43.7257 48.3288 43.8244 48.1973 44.0231C48.0665 44.2218 48.0008 44.4513 48.0008 44.7105C48.0008 44.7311 48.002 44.7626 48.0051 44.805H48.0063ZM50.3167 44.9825V43.5785C50.3708 43.5967 50.4372 43.6064 50.5156 43.6064C50.5941 43.6064 50.6605 43.5973 50.7146 43.5785V44.8729C50.7146 45.0049 50.7341 45.1254 50.7724 45.2344C50.8108 45.3429 50.8698 45.4301 50.9489 45.4961C51.028 45.5621 51.1253 45.5948 51.2391 45.5948C51.2641 45.5948 51.2817 45.5942 51.2939 45.5924C51.4764 45.576 51.6066 45.5064 51.6845 45.3834C51.7624 45.2599 51.8008 45.1145 51.8008 44.9449V43.5785C51.8732 43.5967 51.9437 43.6064 52.0137 43.6064C52.0831 43.6064 52.1445 43.5973 52.1987 43.5785V45.7741C52.1445 45.7565 52.0831 45.7475 52.0137 45.7475C51.9444 45.7475 51.8732 45.7565 51.8008 45.7741V45.4489C51.7332 45.5833 51.6352 45.6766 51.5062 45.7305C51.3779 45.7844 51.2227 45.811 51.0402 45.811C50.7402 45.811 50.5442 45.7287 50.4536 45.5645C50.3617 45.4004 50.3161 45.206 50.3161 44.9825H50.3167ZM54.0375 44.7311C54.0375 44.4986 54.0831 44.2963 54.1732 44.1249C54.2633 43.9529 54.4008 43.819 54.5858 43.7227C54.7701 43.627 54.9965 43.5785 55.266 43.5785C55.4133 43.5785 55.5319 43.5925 55.6208 43.6191C55.7096 43.6458 55.8203 43.6918 55.953 43.7578L55.8806 44.0819H55.8082C55.7352 43.9704 55.6494 43.8893 55.552 43.8372C55.4553 43.7845 55.3354 43.7584 55.1942 43.7584C55.0439 43.7584 54.9137 43.8033 54.8048 43.8911C54.6953 43.9801 54.6131 44.0958 54.5565 44.2393C54.5006 44.3817 54.472 44.5343 54.472 44.6948C54.472 44.8583 54.5012 45.0116 54.5596 45.1545C54.618 45.2968 54.7074 45.4119 54.8285 45.4997C54.949 45.5882 55.0944 45.6318 55.2666 45.6318C55.4029 45.6318 55.5216 45.6081 55.6202 45.5615C55.7193 45.5143 55.8179 45.4416 55.9159 45.3441L55.9518 45.3792L55.9159 45.5954C55.8197 45.6723 55.7072 45.7299 55.5794 45.7693C55.451 45.8092 55.3214 45.8292 55.1887 45.8292C54.9946 45.8292 54.8091 45.788 54.6302 45.7038C54.4519 45.6209 54.3089 45.4961 54.2 45.3301C54.0911 45.1642 54.0375 44.9643 54.0375 44.7305V44.7311ZM56.2755 44.7681C56.2755 44.5313 56.3248 44.3199 56.4227 44.1352C56.5207 43.9492 56.6607 43.8045 56.8438 43.7015C57.0257 43.5979 57.2344 43.5464 57.4699 43.5464C57.7444 43.5464 57.9634 43.6161 58.1259 43.7566C58.2889 43.8965 58.4009 44.0552 58.4636 44.2333C58.525 44.4113 58.5561 44.5652 58.5561 44.696C58.5561 44.8202 58.5354 44.9455 58.4928 45.0721C58.4502 45.1987 58.3833 45.3186 58.2926 45.4325C58.2013 45.5464 58.0821 45.6372 57.9342 45.7075C57.7863 45.7771 57.6172 45.8117 57.4279 45.8117C57.417 45.8117 57.4073 45.8117 57.3987 45.8104C57.3896 45.8098 57.3774 45.8092 57.3628 45.8092C57.1407 45.8092 56.9485 45.7632 56.783 45.6711C56.6187 45.5791 56.4933 45.4543 56.4069 45.2968C56.3199 45.1388 56.2767 44.9625 56.2767 44.7681H56.2755ZM56.7099 44.8056C56.7099 44.9789 56.7586 45.163 56.8554 45.3562C56.9527 45.5494 57.1328 45.653 57.3963 45.6687C57.6014 45.6687 57.7687 45.5857 57.8989 45.4192C58.0285 45.2526 58.1021 45.0122 58.1198 44.6972C58.1198 44.507 58.0948 44.3381 58.0449 44.1903C57.9957 44.0431 57.919 43.9286 57.8168 43.8475C57.7145 43.7669 57.5861 43.7263 57.4322 43.7263C57.2095 43.7263 57.0324 43.8251 56.901 44.0237C56.7702 44.2224 56.7045 44.4519 56.7045 44.7112C56.7045 44.7317 56.7057 44.7632 56.7087 44.8056H56.7099ZM58.7709 43.5792H59.2406C59.3136 43.8354 59.4201 44.1394 59.5588 44.4889C59.6976 44.8396 59.8199 45.1121 59.927 45.3077C60.0298 45.1212 60.16 44.8256 60.3176 44.4216C60.4758 44.0171 60.5744 43.7366 60.6133 43.5792H60.9389C60.85 43.7651 60.766 43.9474 60.6869 44.1273C60.6085 44.3066 60.5294 44.4907 60.4496 44.6803C60.3711 44.8704 60.2939 45.0564 60.219 45.2387C60.1448 45.4204 60.0712 45.5997 59.9994 45.7747C59.9635 45.7571 59.9148 45.7481 59.8546 45.7481C59.7943 45.7481 59.7456 45.7571 59.7097 45.7747L58.7702 43.5792H58.7709ZM61.1895 44.7675C61.1895 44.5143 61.2358 44.2975 61.3277 44.117C61.4196 43.9377 61.5443 43.8026 61.7025 43.7136C61.8607 43.624 62.0384 43.5792 62.2373 43.5792C62.4661 43.5792 62.6517 43.6312 62.7959 43.736C62.9389 43.8402 63.0418 43.9668 63.102 44.114C63.1622 44.2611 63.192 44.4047 63.192 44.544C63.192 44.6082 63.1866 44.6597 63.1768 44.6978H61.6246C61.6246 44.888 61.6489 45.0485 61.6976 45.1799C61.7469 45.3114 61.8303 45.4143 61.9495 45.4864C62.0682 45.5591 62.2246 45.5954 62.4187 45.5954C62.5464 45.5954 62.6681 45.57 62.7856 45.5185C62.9018 45.4682 62.9961 45.3974 63.0685 45.3077L63.1038 45.5591C62.9864 45.636 62.9 45.6905 62.8458 45.722C62.7911 45.7535 62.7156 45.7826 62.6195 45.8086C62.5233 45.8353 62.4077 45.8486 62.2732 45.8486C62.0359 45.8377 61.837 45.782 61.6775 45.6808C61.5181 45.5797 61.4001 45.4501 61.3228 45.2902C61.2455 45.1315 61.2017 44.9571 61.1895 44.7675ZM62.8172 44.5185C62.8172 44.3011 62.774 44.1206 62.6882 43.9759C62.6018 43.8311 62.4527 43.7584 62.238 43.7584C62.1132 43.7584 62.0043 43.7978 61.9118 43.8753C61.8193 43.9529 61.7475 44.0516 61.6982 44.1715C61.6483 44.2914 61.6234 44.4071 61.6234 44.5185H62.8166H62.8172ZM63.719 45.7753V43.5798C63.7731 43.5979 63.8328 43.6076 63.8991 43.6076C63.9654 43.6076 64.0257 43.5985 64.0792 43.5798V44.0146C64.1261 43.9232 64.1808 43.842 64.2459 43.7724C64.3098 43.7015 64.3834 43.6458 64.4656 43.6046C64.5489 43.564 64.6378 43.5428 64.7321 43.5428C64.7461 43.5428 64.7692 43.5446 64.8021 43.5477L64.7656 43.9789C64.6743 43.9304 64.5909 43.9068 64.5155 43.9068C64.4224 43.9068 64.3427 43.9377 64.2776 43.9989C64.2119 44.0601 64.1626 44.1364 64.1297 44.226C64.0968 44.3156 64.0798 44.401 64.0798 44.4822V45.7759C64.0257 45.7584 63.966 45.7493 63.8997 45.7493C63.8334 45.7493 63.7731 45.7584 63.7196 45.7759L63.719 45.7753ZM65.0193 44.7681C65.0193 44.5149 65.0655 44.2981 65.1574 44.1176C65.2493 43.9383 65.374 43.8033 65.5322 43.7142C65.6905 43.6246 65.8681 43.5798 66.0671 43.5798C66.2959 43.5798 66.4815 43.6318 66.6257 43.7366C66.7687 43.8408 66.8715 43.9674 66.9317 44.1146C66.992 44.2617 67.0218 44.4053 67.0218 44.5446C67.0218 44.6088 67.0163 44.6603 67.0066 44.6984H65.4544C65.4544 44.8886 65.4787 45.0491 65.5274 45.1805C65.5767 45.312 65.66 45.4149 65.7793 45.487C65.8979 45.5597 66.0543 45.596 66.2484 45.596C66.3762 45.596 66.4979 45.5706 66.6153 45.5191C66.7316 45.4688 66.8259 45.398 66.8983 45.3083L66.9336 45.5597C66.8161 45.6366 66.7297 45.6911 66.6756 45.7226C66.6208 45.7541 66.5454 45.7832 66.4492 45.8092C66.3531 45.8359 66.2375 45.8492 66.103 45.8492C65.8657 45.8383 65.6667 45.7826 65.5073 45.6814C65.3479 45.5803 65.2298 45.4507 65.1526 45.2908C65.0753 45.1321 65.0315 44.9577 65.0193 44.7681ZM66.647 44.5192C66.647 44.3017 66.6038 44.1212 66.518 43.9765C66.4316 43.8317 66.2825 43.759 66.0677 43.759C65.943 43.759 65.8341 43.7984 65.7416 43.8759C65.6491 43.9535 65.5773 44.0522 65.528 44.1721C65.4781 44.292 65.4531 44.4077 65.4531 44.5192H66.6464H66.647ZM67.3315 44.8044C67.3315 44.607 67.3528 44.4307 67.3966 44.2757C67.4404 44.1212 67.5055 43.9886 67.5932 43.8796C67.6802 43.7705 67.7867 43.6876 67.912 43.6318C68.038 43.5755 68.181 43.5477 68.3422 43.5477C68.445 43.5477 68.5503 43.5683 68.6592 43.6088C68.7687 43.6494 68.8576 43.7015 68.9257 43.7645C68.9945 43.8281 69.0279 43.8887 69.0279 43.9456V42.323C69.1004 42.3412 69.1667 42.3509 69.2269 42.3509C69.2872 42.3509 69.3535 42.3418 69.4259 42.323V45.7753C69.3717 45.7559 69.3103 45.7468 69.2409 45.7468C69.1715 45.7468 69.1004 45.7559 69.0279 45.7753V45.378C68.919 45.5276 68.8004 45.6378 68.6702 45.7081C68.54 45.7777 68.4067 45.8123 68.2692 45.8123C68.1098 45.8123 67.957 45.7674 67.8116 45.6784C67.665 45.5894 67.5487 45.4676 67.4617 45.3126C67.3747 45.1575 67.3309 44.9879 67.3309 44.8038L67.3315 44.8044ZM67.766 44.7336C67.766 45.0473 67.828 45.269 67.954 45.3986C68.0799 45.5282 68.2089 45.5936 68.3434 45.5936C68.355 45.5948 68.3738 45.596 68.3976 45.596C68.5101 45.596 68.6148 45.5609 68.7122 45.4906C68.8089 45.4198 68.8862 45.318 68.9434 45.1824C69.0006 45.0473 69.0292 44.8862 69.0292 44.6972C69.0292 44.4616 68.9878 44.2472 68.9044 44.0534C68.8205 43.8602 68.661 43.7633 68.4249 43.7633C68.4158 43.7633 68.4079 43.7633 68.4012 43.7639C68.3951 43.7645 68.3872 43.7651 68.3805 43.7651C68.128 43.7796 67.9625 43.8832 67.884 44.0746C67.8061 44.2654 67.7672 44.4852 67.7672 44.733L67.766 44.7336ZM70.0764 45.5591C70.0806 45.484 70.0964 45.4216 70.1226 45.3719C70.1488 45.3229 70.1828 45.2859 70.2242 45.2629C70.2656 45.2393 70.3082 45.2278 70.3514 45.2278C70.4013 45.2278 70.4493 45.2399 70.4962 45.2653C70.5424 45.2902 70.5808 45.3247 70.61 45.3689C70.6392 45.4131 70.6538 45.4646 70.6538 45.5234C70.6447 45.6166 70.613 45.6881 70.5583 45.7384C70.5029 45.788 70.439 45.8129 70.3648 45.8129C70.2924 45.8129 70.2285 45.7905 70.1731 45.745C70.1177 45.7002 70.0855 45.6378 70.0764 45.5591Z" fill="#0033EA"/>
</svg>
